<svg xmlns="http://www.w3.org/2000/svg" xmlns:xlink="http://www.w3.org/1999/xlink" width="500" height="500" preserveAspectRatio="xMidYMid meet" version="1.0" viewBox="0 0 375 375" zoomAndPan="magnify"><defs><clipPath id="133fd367ae"><path d="M 11.710938 9.707031 L 362 9.707031 L 362 360 L 11.710938 360 Z M 11.710938 9.707031" clip-rule="nonzero"/></clipPath><clipPath id="65e08334e9"><path d="M 181.679688 77.71875 L 196 77.71875 L 196 92 L 181.679688 92 Z M 181.679688 77.71875" clip-rule="nonzero"/></clipPath></defs><g clip-path="url(#133fd367ae)"><path fill="#1d6193" fill-opacity="1" fill-rule="nonzero" d="M 186.824219 359.933594 C 90.265625 359.933594 11.710938 281.378906 11.710938 184.820312 C 11.710938 88.261719 90.265625 9.707031 186.824219 9.707031 C 283.382812 9.707031 361.9375 88.261719 361.9375 184.820312 C 361.9375 281.378906 283.382812 359.933594 186.824219 359.933594 Z M 186.824219 359.933594"/></g><path fill="#1d6193" fill-opacity="1" fill-rule="nonzero" d="M 186.824219 346.882812 C 97.464844 346.882812 24.765625 274.179688 24.765625 184.820312 C 24.765625 95.460938 97.464844 22.761719 186.824219 22.761719 C 276.183594 22.761719 348.886719 95.460938 348.886719 184.820312 C 348.886719 274.179688 276.183594 346.882812 186.824219 346.882812 Z M 186.824219 346.882812"/><path fill="#fff" fill-opacity="1" fill-rule="nonzero" d="M 256.941406 306.316406 C 235.015625 319.019531 213.9375 342.53125 186.824219 342.53125 C 159.714844 342.53125 138.632812 319.019531 116.707031 306.316406 C 94.113281 293.222656 63.363281 286.257812 50.269531 263.664062 C 37.566406 241.738281 46.519531 211.933594 46.519531 184.820312 C 46.519531 157.710938 37.566406 127.902344 50.269531 105.976562 C 63.363281 83.382812 94.113281 76.417969 116.707031 63.328125 C 138.632812 50.621094 159.714844 27.113281 186.824219 27.113281 C 213.9375 27.113281 235.015625 50.621094 256.941406 63.328125 C 279.535156 76.417969 310.285156 83.382812 323.378906 105.976562 C 336.082031 127.902344 327.128906 157.710938 327.128906 184.820312 C 327.128906 211.933594 336.082031 241.738281 323.378906 263.664062 C 310.285156 286.257812 279.535156 293.222656 256.941406 306.316406 Z M 256.941406 306.316406"/><g fill="#1d6193" fill-opacity="1"><g><g><path d="M 9.453125 0 L 9.453125 -88.4375 L 67.03125 -88.4375 L 67.03125 -72.0625 L 30.984375 -72.0625 L 30.984375 -53.046875 L 57.953125 -53.046875 L 57.953125 -36.65625 L 30.984375 -36.65625 L 30.984375 0 Z M 9.453125 0" transform="translate(55.333888, 221.025069)"/></g></g></g><g fill="#1d6193" fill-opacity="1"><g><g><path d="M 9.453125 -88.4375 L 30.984375 -88.4375 L 30.984375 -16.375 L 57.828125 -16.375 L 57.828125 0 L 9.453125 0 Z M 9.453125 -88.4375" transform="translate(127.757861, 221.025069)"/></g></g></g><g fill="#1d6193" fill-opacity="1"><g><g><path d="M 9.453125 0 L 9.453125 -88.4375 L 30.984375 -88.4375 L 30.984375 0 Z M 9.453125 0" transform="translate(188.090215, 221.025069)"/></g></g></g><g fill="#1d6193" fill-opacity="1"><g><g><path d="M 86.546875 -88.4375 L 58.578125 -44.09375 L 86.421875 0 L 61.984375 0 L 45.734375 -25.703125 L 30.734375 0 L 6.296875 0 L 34.140625 -44.21875 L 6.296875 -88.4375 L 30.734375 -88.4375 L 47 -62.609375 L 62.109375 -88.4375 Z M 86.546875 -88.4375" transform="translate(228.521694, 221.025069)"/></g></g></g><path fill="#edaf30" fill-opacity="1" fill-rule="nonzero" d="M 191.140625 99.515625 C 191.140625 99.515625 193.824219 103.359375 192.4375 111.597656 L 225.511719 111.597656 C 225.511719 111.597656 222.742188 103.816406 226.984375 97.863281 L 222.503906 95.917969 C 222.503906 95.917969 221.765625 100.304688 218.082031 101.253906 C 216.78125 101.585938 214.988281 101.695312 213.070312 99.425781 C 211.351562 97.386719 209.417969 92.378906 211.304688 90.023438 C 213.191406 87.664062 206.46875 90.550781 206.46875 90.550781 C 206.703125 94.355469 206.300781 98.699219 204.503906 100.613281 C 203.589844 101.585938 202.105469 101.859375 199.835938 101.148438 C 196.003906 99.953125 194.796875 95.917969 194.796875 95.917969 Z M 191.140625 99.515625"/><path fill="#edaf30" fill-opacity="1" fill-rule="nonzero" d="M 191.3125 111.480469 L 226.097656 111.480469 L 226.097656 118.027344 L 191.3125 118.027344 Z M 191.3125 111.480469"/><path fill="#1d6193" fill-opacity="1" fill-rule="nonzero" d="M 198.183594 94 C 198.183594 94.410156 198.144531 94.820312 198.0625 95.222656 C 197.984375 95.625 197.863281 96.019531 197.707031 96.398438 C 197.546875 96.777344 197.355469 97.140625 197.128906 97.480469 C 196.898438 97.824219 196.640625 98.140625 196.347656 98.433594 C 196.058594 98.722656 195.742188 98.984375 195.398438 99.210938 C 195.054688 99.441406 194.695312 99.632812 194.316406 99.789062 C 193.933594 99.949219 193.542969 100.066406 193.140625 100.148438 C 192.734375 100.226562 192.328125 100.265625 191.917969 100.265625 C 191.503906 100.265625 191.097656 100.226562 190.695312 100.148438 C 190.289062 100.066406 189.898438 99.949219 189.519531 99.789062 C 189.136719 99.632812 188.777344 99.441406 188.433594 99.210938 C 188.09375 98.984375 187.777344 98.722656 187.484375 98.433594 C 187.195312 98.140625 186.933594 97.824219 186.707031 97.480469 C 186.476562 97.140625 186.285156 96.777344 186.125 96.398438 C 185.96875 96.019531 185.851562 95.625 185.769531 95.222656 C 185.691406 94.820312 185.648438 94.410156 185.648438 94 C 185.648438 93.589844 185.691406 93.179688 185.769531 92.777344 C 185.851562 92.375 185.96875 91.984375 186.125 91.601562 C 186.285156 91.222656 186.476562 90.859375 186.707031 90.519531 C 186.933594 90.175781 187.195312 89.859375 187.484375 89.570312 C 187.777344 89.277344 188.09375 89.019531 188.433594 88.789062 C 188.777344 88.5625 189.136719 88.367188 189.519531 88.210938 C 189.898438 88.054688 190.289062 87.933594 190.695312 87.855469 C 191.097656 87.773438 191.503906 87.734375 191.917969 87.734375 C 192.328125 87.734375 192.734375 87.773438 193.140625 87.855469 C 193.542969 87.933594 193.933594 88.054688 194.316406 88.210938 C 194.695312 88.367188 195.054688 88.5625 195.398438 88.789062 C 195.742188 89.019531 196.058594 89.277344 196.347656 89.570312 C 196.640625 89.859375 196.898438 90.175781 197.128906 90.519531 C 197.355469 90.859375 197.546875 91.222656 197.707031 91.601562 C 197.863281 91.984375 197.984375 92.375 198.0625 92.777344 C 198.144531 93.179688 198.183594 93.589844 198.183594 94 Z M 198.183594 94"/><path fill="#1d6193" fill-opacity="1" fill-rule="nonzero" d="M 214.972656 87.734375 C 214.972656 88.144531 214.929688 88.554688 214.851562 88.957031 C 214.769531 89.359375 214.652344 89.75 214.492188 90.132812 C 214.335938 90.511719 214.144531 90.875 213.914062 91.214844 C 213.6875 91.558594 213.425781 91.875 213.136719 92.164062 C 212.84375 92.457031 212.527344 92.714844 212.1875 92.945312 C 211.84375 93.171875 211.484375 93.367188 211.101562 93.523438 C 210.722656 93.679688 210.332031 93.800781 209.925781 93.878906 C 209.523438 93.960938 209.117188 94 208.703125 94 C 208.292969 94 207.886719 93.960938 207.480469 93.878906 C 207.078125 93.800781 206.6875 93.679688 206.304688 93.523438 C 205.925781 93.367188 205.5625 93.171875 205.222656 92.945312 C 204.878906 92.714844 204.5625 92.457031 204.273438 92.164062 C 203.980469 91.875 203.722656 91.558594 203.492188 91.214844 C 203.265625 90.875 203.070312 90.511719 202.914062 90.132812 C 202.757812 89.75 202.636719 89.359375 202.558594 88.957031 C 202.476562 88.554688 202.4375 88.144531 202.4375 87.734375 C 202.4375 87.324219 202.476562 86.914062 202.558594 86.511719 C 202.636719 86.109375 202.757812 85.714844 202.914062 85.335938 C 203.070312 84.957031 203.265625 84.59375 203.492188 84.253906 C 203.722656 83.910156 203.980469 83.59375 204.273438 83.300781 C 204.5625 83.011719 204.878906 82.75 205.222656 82.523438 C 205.5625 82.292969 205.925781 82.101562 206.304688 81.945312 C 206.6875 81.785156 207.078125 81.667969 207.480469 81.585938 C 207.886719 81.507812 208.292969 81.464844 208.703125 81.464844 C 209.117188 81.464844 209.523438 81.507812 209.925781 81.585938 C 210.332031 81.667969 210.722656 81.785156 211.101562 81.945312 C 211.484375 82.101562 211.84375 82.292969 212.1875 82.523438 C 212.527344 82.75 212.84375 83.011719 213.136719 83.300781 C 213.425781 83.59375 213.6875 83.910156 213.914062 84.253906 C 214.144531 84.59375 214.335938 84.957031 214.492188 85.335938 C 214.652344 85.714844 214.769531 86.109375 214.851562 86.511719 C 214.929688 86.914062 214.972656 87.324219 214.972656 87.734375 Z M 214.972656 87.734375"/><path fill="#1d6193" fill-opacity="1" fill-rule="nonzero" d="M 231.757812 94 C 231.757812 94.410156 231.71875 94.820312 231.636719 95.222656 C 231.558594 95.625 231.4375 96.019531 231.28125 96.398438 C 231.125 96.777344 230.929688 97.140625 230.703125 97.480469 C 230.472656 97.824219 230.214844 98.140625 229.921875 98.433594 C 229.632812 98.722656 229.316406 98.984375 228.972656 99.210938 C 228.628906 99.441406 228.269531 99.632812 227.890625 99.789062 C 227.507812 99.949219 227.117188 100.066406 226.714844 100.148438 C 226.308594 100.226562 225.902344 100.265625 225.492188 100.265625 C 225.078125 100.265625 224.671875 100.226562 224.269531 100.148438 C 223.867188 100.066406 223.472656 99.949219 223.09375 99.789062 C 222.714844 99.632812 222.351562 99.441406 222.011719 99.210938 C 221.667969 98.984375 221.351562 98.722656 221.058594 98.433594 C 220.769531 98.140625 220.507812 97.824219 220.28125 97.480469 C 220.050781 97.140625 219.859375 96.777344 219.703125 96.398438 C 219.542969 96.019531 219.425781 95.625 219.34375 95.222656 C 219.265625 94.820312 219.226562 94.410156 219.226562 94 C 219.226562 93.589844 219.265625 93.179688 219.34375 92.777344 C 219.425781 92.375 219.542969 91.984375 219.703125 91.601562 C 219.859375 91.222656 220.050781 90.859375 220.28125 90.519531 C 220.507812 90.175781 220.769531 89.859375 221.058594 89.570312 C 221.351562 89.277344 221.667969 89.019531 222.011719 88.789062 C 222.351562 88.5625 222.714844 88.367188 223.09375 88.210938 C 223.472656 88.054688 223.867188 87.933594 224.269531 87.855469 C 224.671875 87.773438 225.078125 87.734375 225.492188 87.734375 C 225.902344 87.734375 226.308594 87.773438 226.714844 87.855469 C 227.117188 87.933594 227.507812 88.054688 227.890625 88.210938 C 228.269531 88.367188 228.628906 88.5625 228.972656 88.789062 C 229.316406 89.019531 229.632812 89.277344 229.921875 89.570312 C 230.214844 89.859375 230.472656 90.175781 230.703125 90.519531 C 230.929688 90.859375 231.125 91.222656 231.28125 91.601562 C 231.4375 91.984375 231.558594 92.375 231.636719 92.777344 C 231.71875 93.179688 231.757812 93.589844 231.757812 94 Z M 231.757812 94"/><path fill="#1d6193" fill-opacity="1" fill-rule="nonzero" d="M 227.007812 112.035156 C 227.007812 112.621094 226.53125 113.097656 225.945312 113.097656 L 191.460938 113.097656 C 190.875 113.097656 190.398438 112.621094 190.398438 112.035156 L 190.398438 111.503906 C 190.398438 110.917969 190.875 110.445312 191.460938 110.445312 L 225.945312 110.445312 C 226.53125 110.445312 227.007812 110.917969 227.007812 111.503906 Z M 227.007812 112.035156"/><path fill="#1d6193" fill-opacity="1" fill-rule="nonzero" d="M 227.007812 118.535156 C 227.007812 119.121094 226.53125 119.59375 225.945312 119.59375 L 191.460938 119.59375 C 190.875 119.59375 190.398438 119.121094 190.398438 118.535156 L 190.398438 118.003906 C 190.398438 117.417969 190.875 116.941406 191.460938 116.941406 L 225.945312 116.941406 C 226.53125 116.941406 227.007812 117.417969 227.007812 118.003906 Z M 227.007812 118.535156"/><g clip-path="url(#65e08334e9)"><path fill="#edaf30" fill-opacity="1" fill-rule="nonzero" d="M 195.332031 84.5 C 189.769531 85.171875 189.222656 85.714844 188.550781 91.28125 C 187.878906 85.714844 187.335938 85.171875 181.769531 84.5 C 187.335938 83.828125 187.878906 83.285156 188.550781 77.71875 C 189.222656 83.285156 189.769531 83.828125 195.332031 84.5 Z M 195.332031 84.5"/></g><path fill="#edaf30" fill-opacity="1" fill-rule="nonzero" d="M 235.679688 121.195312 C 230.117188 121.867188 229.570312 122.410156 228.898438 127.976562 C 228.226562 122.414062 227.683594 121.867188 222.121094 121.195312 C 227.683594 120.523438 228.226562 119.980469 228.898438 114.414062 C 229.570312 119.980469 230.117188 120.523438 235.679688 121.195312 Z M 235.679688 121.195312"/></svg>