<svg xmlns="http://www.w3.org/2000/svg" xmlns:xlink="http://www.w3.org/1999/xlink" width="6912" height="3456" preserveAspectRatio="xMidYMid meet" version="1.0" viewBox="0 0 5184 2592" zoomAndPan="magnify"><defs><clipPath id="81f6683b1d"><path d="M 2560 732 L 5183 732 L 5183 1639 L 2560 1639 Z M 2560 732" clip-rule="nonzero"/></clipPath></defs><g fill="#eb3f78" fill-opacity="1"><g><g><path d="M 42.195312 0 L 178.25 0 L 178.25 -197.195312 L 627.75 -197.195312 L 627.75 -310.859375 L 178.25 -310.859375 L 178.25 -488.25 L 679.414062 -488.25 L 679.414062 -602.777344 L 42.195312 -602.777344 Z M 42.195312 0" transform="translate(21.019593, 1487.862219)"/></g></g></g><g fill="#eb3f78" fill-opacity="1"><g><g><path d="M 42.195312 0 L 662.191406 0 L 662.191406 -114.527344 L 178.25 -114.527344 L 178.25 -602.777344 L 42.195312 -602.777344 Z M 42.195312 0" transform="translate(733.962633, 1487.862219)"/></g></g></g><g fill="#eb3f78" fill-opacity="1"><g><g><path d="M 42.195312 0 L 178.25 0 L 178.25 -602.777344 L 42.195312 -602.777344 Z M 42.195312 0" transform="translate(1429.684887, 1487.862219)"/></g></g></g><g fill="#eb3f78" fill-opacity="1"><g><g><path d="M 33.582031 0 L 226.472656 0 L 477.914062 -216.136719 L 729.359375 0 L 922.246094 0 L 568.332031 -301.386719 L 922.246094 -602.777344 L 729.359375 -602.777344 L 477.914062 -386.636719 L 226.472656 -602.777344 L 33.582031 -602.777344 L 387.5 -301.386719 Z M 33.582031 0" transform="translate(1650.111711, 1487.862219)"/></g></g></g><g clip-path="url(#81f6683b1d)"><path fill="none" stroke="#eb3f78" stroke-linecap="butt" stroke-linejoin="miter" stroke-miterlimit="4" stroke-opacity="1" stroke-width="5.51" d="M 34.529132 141.999755 L 64.800813 141.999755 L 64.800813 38.881549 L 165.580197 141.999755 L 207.36047 141.999755 L 207.36047 7.86104 L 177.089637 7.86104 L 177.089637 110.933502 L 76.497459 7.86104 L 34.529132 7.86104 Z M 226.154054 141.999755 L 256.425734 141.999755 L 256.425734 98.113612 L 356.45629 98.113612 L 356.45629 72.801655 L 256.425734 72.801655 L 256.425734 33.360204 L 367.965729 33.360204 L 367.965729 7.86104 L 226.154054 7.86104 Z M 450.134502 141.999755 L 480.452772 141.999755 L 480.452772 33.360204 L 547.685619 33.360204 L 547.685619 7.86104 L 382.901655 7.86104 L 382.901655 33.360204 L 450.134502 33.360204 Z M 450.134502 141.999755" transform="matrix(4.611364, 0, 0, 4.611364, 2544.754058, 839.656132)"/></g></svg>